Patient4_TMGait_0pt6_02_right_17_GRF.mot
version=1
nRows=52
nColumns=19
inDegrees=no
endheader
time	F1x	F1y	F1z	M1x	M1y	M1z	F2x	F2y	F2z	M2x	M2y	M2z	EC1x	EC1y	EC1z	EC2x	EC2y	EC2z
20.28	-5.4791	734.6461	48.3097	-255.6052	-52.2642	759.7725	8.1522	5.9611	-4.059	3.885	1.1909	5.6862	-0.0592	0.0182	-0.0073	-0.0462	0.0165	0.9585
20.2924	-1.81	742.0948	51.1665	-258.852	-53.1465	767.9468	5.3762	5.3394	-2.7251	3.1309	0.88212	5.3767	-0.0592	0.0182	-0.0073	-0.0462	0.0165	0.9585
20.3047	1.9097	749.9069	53.5188	-262.2315	-53.4421	775.1662	2.9863	4.8816	-1.6161	2.5274	0.6454	5.1808	-0.0592	0.0182	-0.0073	-0.0462	0.0165	0.9585
20.3171	5.4896	757.4243	55.2269	-265.4606	-53.1147	780.7374	1.12	4.6046	-0.7885	2.1013	0.48973	5.1241	-0.0592	0.0182	-0.0073	-0.0462	0.0165	0.9585
20.3294	8.8468	763.9827	56.2679	-268.2672	-52.2039	784.1872	-0.19328	4.4719	-0.2243	1.8362	0.39692	5.166	-0.0592	0.0182	-0.0073	-0.0462	0.0165	0.9585
20.3418	11.9214	768.9968	56.7467	-270.4132	-50.8532	785.2555	-1.048	4.4535	0.11394	1.6971	0.3655	5.2926	-0.0592	0.0182	-0.0073	-0.0462	0.0165	0.9585
20.3541	14.7014	772.0115	56.7786	-271.7178	-49.196	783.8351	-1.5348	4.4576	0.28629	1.6277	0.37114	5.3882	-0.0592	0.0182	-0.0073	-0.0462	0.0165	0.9585
20.3665	17.1778	772.7763	56.5058	-272.0783	-47.3816	779.9953	-1.7813	4.3991	0.34175	1.5692	0.407	5.3685	-0.0592	0.0182	-0.0073	-0.0462	0.0165	0.9585
20.3789	19.3594	771.269	56.0259	-271.4821	-45.511	773.9604	-1.8639	4.1507	0.33108	1.4531	0.45087	5.0819	-0.0592	0.0182	-0.0073	-0.0462	0.0165	0.9585
20.3912	21.2631	767.7157	55.4293	-270.008	-43.6739	766.1524	-1.8709	3.5785	0.2873	1.2098	0.49839	4.3845	-0.0592	0.0182	-0.0073	-0.0462	0.0165	0.9585
20.4036	22.9489	762.5117	54.7764	-267.8004	-41.9154	757.0878	-1.8306	2.5343	0.23265	0.77231	0.53685	3.0991	-0.0592	0.0182	-0.0073	-0.0462	0.0165	0.9585
20.4159	24.4698	756.151	54.1288	-265.0385	-40.2783	747.3196	-1.7539	0.90251	0.1788	0.089513	0.55337	1.0925	-0.0592	0.0182	-0.0073	-0.0462	0.0165	0.9585
20.4283	25.9085	749.1341	53.5452	-261.9041	-38.7946	737.348	-1.608	-1.3768	0.13334	-0.86341	0.52503	-1.7032	-0.0592	0.0182	-0.0073	-0.0462	0.0165	0.9585
20.4406	27.3565	741.8978	53.0889	-258.5582	-37.4968	727.5818	-1.3388	-4.2384	0.096558	-2.0583	0.42715	-5.2026	-0.0592	0.0182	-0.0073	-0.0462	0.0165	0.9585
20.453	28.9031	734.7827	52.8329	-255.1276	-36.4237	718.304	-0.87318	-7.4064	0.06863	-3.3773	0.22906	-9.071	-0.0592	0.0182	-0.0073	-0.0462	0.0165	0.9585
20.4654	30.6341	728.087	52.8518	-251.7202	-35.611	709.7323	-0.11435	-10.297	0.046994	-4.573	-0.10352	-12.612	-0.0592	0.0182	-0.0073	-0.0462	0.0165	0.9585
20.4777	32.645	722.117	53.2166	-248.4451	-35.0861	702.072	1.011	-11.8799	0.044826	-5.2147	-0.61202	-14.5776	-0.0592	0.0182	-0.0073	-0.0462	0.0165	0.9585
20.4901	35.0078	717.1414	53.9793	-245.4064	-34.8635	695.4792	2.5751	-10.6179	0.072182	-4.6551	-1.3245	-13.1082	-0.0592	0.0182	-0.0073	-0.0462	0.0165	0.9585
20.5024	37.776	713.3372	55.1482	-242.6863	-34.9249	690.0264	4.5368	-4.385	0.15626	-2.0042	-2.242	-5.6068	-0.0592	0.0182	-0.0073	-0.0462	0.0165	0.9585
20.5148	40.9748	710.62	56.667	-240.2947	-35.198	685.5464	6.7654	9.4297	0.30682	3.8374	-3.2953	11.0947	-0.0592	0.0182	-0.0073	-0.0462	0.0165	0.9585
20.5271	44.5661	708.4781	58.3728	-238.1146	-35.5357	681.492	8.8865	33.7238	0.54255	14.0863	-4.3214	40.5248	-0.0592	0.0182	-0.0073	-0.0462	0.0165	0.9585
20.5395	48.4488	705.7772	59.9915	-235.8358	-35.7134	676.7517	10.2708	71.1092	0.85078	29.8408	-5.0119	85.8567	-0.0592	0.0182	-0.0073	-0.0462	0.0165	0.9585
20.5519	52.4378	700.6872	61.1441	-232.9175	-35.4449	669.6234	9.9008	123.0417	1.2115	51.7061	-4.8927	148.883	-0.0592	0.0182	-0.0073	-0.0462	0.0165	0.9585
20.5642	56.2375	690.7438	61.4079	-228.6008	-34.4434	657.8582	6.3825	188.3902	1.5568	79.1994	-3.2893	228.2548	-0.0592	0.0182	-0.0073	-0.0462	0.0165	0.9585
20.5766	59.4293	673.2315	60.3823	-222.0279	-32.4918	639.0174	-1.6912	261.9265	1.7123	110.1059	0.55473	317.6863	-0.0592	0.0182	-0.0073	-0.0462	0.0165	0.9585
20.5889	61.5328	645.6999	57.783	-212.4107	-29.5066	610.9326	-13.6126	334.4148	0.95777	140.4802	7.1543	406.028	-0.0592	0.0182	-0.0073	-0.0462	0.0165	0.9585
20.6013	62.0863	606.6995	53.5745	-199.2638	-25.6276	572.3739	-26.2321	395.7542	-1.9492	166.0138	16.4539	480.8855	-0.0592	0.0182	-0.0073	-0.0462	0.0165	0.9585
20.6136	60.7525	556.3128	48.0492	-182.5708	-21.2368	523.5102	-36.944	440.5229	-6.8733	184.4002	27.1553	535.3955	-0.0592	0.0182	-0.0073	-0.0462	0.0165	0.9585
20.626	57.4194	496.1319	41.7758	-162.7877	-16.8788	465.893	-44.7774	469.9169	-13.1994	196.1492	38.0544	570.8416	-0.0592	0.0182	-0.0073	-0.0462	0.0165	0.9585
20.6384	52.1921	428.9631	35.3364	-140.7652	-13.0286	402.1537	-49.8211	489.388	-19.466	203.6164	47.554	593.7464	-0.0592	0.0182	-0.0073	-0.0462	0.0165	0.9585
20.6507	45.3214	358.3461	29.128	-117.6149	-9.9468	335.5711	-52.8485	505.3512	-25.0558	209.5382	55.238	611.9067	-0.0592	0.0182	-0.0073	-0.0462	0.0165	0.9585
20.6631	37.2106	288.2081	23.3691	-94.598	-7.6859	269.7462	-54.6708	523.3877	-29.4306	216.2931	60.916	631.9805	-0.0592	0.0182	-0.0073	-0.0462	0.0165	0.9585
20.6754	28.4728	222.3193	18.1869	-72.9478	-6.1549	208.1076	-55.8655	547.3948	-32.9914	225.4837	65.3013	658.587	-0.0592	0.0182	-0.0073	-0.0462	0.0165	0.9585
20.6878	19.8517	163.7517	13.6882	-53.6816	-5.1914	153.426	-56.7004	578.7521	-36.0889	237.6545	68.9747	693.2975	-0.0592	0.0182	-0.0073	-0.0462	0.0165	0.9585
20.7001	12.0999	114.38	9.9417	-37.4308	-4.593	107.3513	-57.3873	616.1573	-39.3854	252.219	72.7567	734.626	-0.0592	0.0182	-0.0073	-0.0462	0.0165	0.9585
20.7125	5.7281	74.807	6.9189	-24.4113	-4.1489	70.3974	-57.9772	656.609	-43.0974	267.9135	76.9338	779.0697	-0.0592	0.0182	-0.0073	-0.0462	0.0165	0.9585
20.7249	1.0445	44.6536	4.5291	-14.5125	-3.6729	42.1886	-58.5141	696.6726	-47.283	283.3075	81.5679	822.6805	-0.0592	0.0182	-0.0073	-0.0462	0.0165	0.9585
20.7372	-1.8663	22.9584	2.6964	-7.4148	-3.071	21.843	-58.8998	733.2537	-51.5936	297.1538	86.2464	861.89	-0.0592	0.0182	-0.0073	-0.0462	0.0165	0.9585
20.7496	-3.1492	8.4309	1.3341	-2.6852	-2.3209	8.1734	-59.0134	763.8838	-55.7325	308.4735	90.5742	893.9011	-0.0592	0.0182	-0.0073	-0.0462	0.0165	0.9585
20.7619	-3.3	-0.27846	0.40705	0.13298	-1.5611	-0.05561	-58.6734	786.7404	-59.2652	316.5793	94.0039	916.6452	-0.0592	0.0182	-0.0073	-0.0462	0.0165	0.9585
20.7743	-2.821	-4.6345	-0.15522	1.527	-0.90043	-4.1862	-57.7704	800.7922	-61.9559	321.1047	96.2222	929.0231	-0.0592	0.0182	-0.0073	-0.0462	0.0165	0.9585
20.7866	-2.0715	-6.0457	-0.43672	1.9621	-0.38747	-5.5251	-56.2526	805.9324	-63.6723	322.0581	97.073	930.9961	-0.0592	0.0182	-0.0073	-0.0462	0.0165	0.9585
20.799	-1.2781	-5.6681	-0.53664	1.8192	-0.012592	-5.1659	-54.2138	803.0543	-64.4773	319.8356	96.6704	923.6939	-0.0592	0.0182	-0.0073	-0.0462	0.0165	0.9585
20.8114	-0.57613	-4.3815	-0.51339	1.3869	0.22833	-3.9439	-51.8288	793.8635	-64.4944	315.1588	95.2332	909.1503	-0.0592	0.0182	-0.0073	-0.0462	0.0165	0.9585
20.8237	-0.021969	-2.7774	-0.43361	0.85831	0.36926	-2.4228	-49.3081	780.7085	-63.8835	308.9902	93.0399	890.1018	-0.0592	0.0182	-0.0073	-0.0462	0.0165	0.9585
20.8361	0.37288	-1.2201	-0.32207	0.35123	0.42179	-0.95018	-46.8588	766.1958	-62.7996	302.3865	90.3573	869.5215	-0.0592	0.0182	-0.0073	-0.0462	0.0165	0.9585
20.8484	0.63167	0.087915	-0.22177	-0.07413	0.42973	0.28216	-44.6547	752.833	-61.376	296.3488	87.4154	850.232	-0.0592	0.0182	-0.0073	-0.0462	0.0165	0.9585
20.8608	0.77582	1.0739	-0.12923	-0.39766	0.40021	1.2077	-42.8024	742.6803	-59.7547	291.6849	84.419	834.5238	-0.0592	0.0182	-0.0073	-0.0462	0.0165	0.9585
20.8731	0.84416	1.7439	-0.061869	-0.62347	0.36278	1.8309	-41.3704	737.0982	-58.0485	288.9143	81.5202	823.8704	-0.0592	0.0182	-0.0073	-0.0462	0.0165	0.9585
20.8855	0.8576	2.1491	-0.0066412	-0.76736	0.31224	2.2111	-40.3654	736.6811	-56.3954	288.2428	78.8645	818.8814	-0.0592	0.0182	-0.0073	-0.0462	0.0165	0.9585
20.8979	0.84097	2.3621	0.027169	-0.85258	0.26254	2.4108	-39.7198	741.277	-54.8901	289.5793	76.5236	819.336	-0.0592	0.0182	-0.0073	-0.0462	0.0165	0.9585
20.9102	0.80066	2.4528	0.053372	-0.89728	0.20353	2.4964	-39.3416	750.084	-53.629	292.5789	74.5557	824.3199	-0.0592	0.0182	-0.0073	-0.0462	0.0165	0.9585
